<svg width="123" height="56" viewBox="0 0 123 56" fill="none" xmlns="http://www.w3.org/2000/svg">
<mask id="mask0_1167_501" style="mask-type:luminance" maskUnits="userSpaceOnUse" x="0" y="0" width="123" height="56">
<path d="M122.356 0H0V56H122.356V0Z" fill="white"/>
</mask>
<g mask="url(#mask0_1167_501)">
<path d="M66.0321 18.9287L99.274 18.8644C99.4914 18.8644 99.7088 18.8275 99.9105 18.7495C100.825 18.394 101.594 17.7213 102.033 16.8736C103.175 14.6655 103.669 11.41 104.614 9.05004H72.486L62.9946 0H122.724V0.168176L115.319 21.2817C112.694 27.1556 106.9 30.9361 100.542 32.2761C99.2073 32.5577 97.8434 32.6876 96.4768 32.6931L78.3151 32.7615L71.1606 48.6397L49.6816 56.25" fill="url(#paint0_linear_1167_501)"/>
<path d="M57.1109 0C59.5944 1.30673 62.2177 3.14567 64.0277 5.26093C66.9277 8.64753 65.6048 9.90389 64.375 13.428C62.4634 18.9108 59.7724 29.3169 56.076 33.4576C54.4608 35.2666 48.5125 39.5434 46.1208 39.5434H1.90322L11.5958 15.8509H28.3832L23.3639 28.5315H42.6602C43.4805 28.5315 44.49 26.8818 44.7342 26.193L50.708 9.34445H9.95099L0 0.167424V0H57.1109Z" fill="url(#paint1_linear_1167_501)"/>
</g>
<defs>
<linearGradient id="paint0_linear_1167_501" x1="86.2025" y1="0" x2="86.2025" y2="56.25" gradientUnits="userSpaceOnUse">
<stop stop-color="#FF4F8B"/>
<stop offset="0.514423" stop-color="#E72D72"/>
<stop offset="1" stop-color="#CE0B58"/>
</linearGradient>
<linearGradient id="paint1_linear_1167_501" x1="32.8854" y1="0" x2="32.8854" y2="39.5434" gradientUnits="userSpaceOnUse">
<stop stop-color="#FF4F8B"/>
<stop offset="0.514423" stop-color="#E72D72"/>
<stop offset="1" stop-color="#CE0B58"/>
</linearGradient>
</defs>
</svg>
